<svg width="20" height="15" viewBox="0 0 20 15" fill="none" xmlns="http://www.w3.org/2000/svg">
<path d="M8.16667 11.5835H11.8333M11.8333 11.5835V0.583496H0.833336V11.5835H3.58334M11.8333 11.5835H12.75M17.3333 11.5835H19.1667V8.52183C19.167 8.04017 19.0725 7.56316 18.8885 7.11805C18.7045 6.67293 18.4346 6.26843 18.0942 5.92766L16.4167 4.25016H11.8333M8.16667 12.0418C8.16667 13.3075 7.14066 14.3335 5.875 14.3335C4.60935 14.3335 3.58334 13.3075 3.58334 12.0418C3.58334 10.7762 4.60935 9.75016 5.875 9.75016C7.14066 9.75016 8.16667 10.7762 8.16667 12.0418ZM17.3333 12.0418C17.3333 13.3075 16.3073 14.3335 15.0417 14.3335C13.776 14.3335 12.75 13.3075 12.75 12.0418C12.75 10.7762 13.776 9.75016 15.0417 9.75016C16.3073 9.75016 17.3333 10.7762 17.3333 12.0418Z" stroke="#E4E4E7" stroke-linecap="round" stroke-linejoin="round"/>
</svg>
